<svg width="856" height="878" viewBox="0 0 856 878" fill="none" xmlns="http://www.w3.org/2000/svg">
<g clip-path="url(#clip0_5_495)">
<g filter="url(#filter0_d_5_495)">
<path d="M0 200V678C0 788.457 89.543 878 200 878H656C766.457 878 856 788.457 856 678V200C856 89.5431 766.457 0 656 0H200C89.543 0 0 89.543 0 200Z" fill="url(#paint0_linear_5_495)"/>
</g>
<g filter="url(#filter1_i_5_495)">
<path d="M341.033 209.698C404.676 192.926 477.685 216.515 514.343 288.27C515.314 290.171 516.379 292.575 517.17 294.42C517.573 295.36 517.92 296.188 518.165 296.782C518.288 297.08 518.387 297.319 518.455 297.486C518.489 297.57 518.515 297.635 518.533 297.681C518.543 297.703 518.55 297.721 518.555 297.733C518.557 297.739 518.559 297.744 518.561 297.748C518.561 297.75 518.562 297.751 518.563 297.752L518.564 297.753V297.754L518.592 297.823L518.617 297.893L520.048 301.71C521.095 301.646 522.298 301.577 523.626 301.508C528.503 301.254 535.113 301 542 301C567.164 301 600.187 303.325 626.058 327.081C635.106 335.39 642.769 345.706 648.192 356.073C653.536 366.29 656.959 377.053 656.998 386.338L657.091 388.677C657.559 396.072 659.113 400.117 661.17 402.6C663.168 405.012 666.362 406.818 672.145 408.106C673.66 408.342 675.394 408.749 676.652 409.065C677.353 409.242 677.971 409.406 678.412 409.526C678.634 409.587 678.813 409.637 678.939 409.672C679.002 409.689 679.052 409.704 679.087 409.714C679.096 409.716 679.104 409.719 679.112 409.721C679.116 409.722 679.121 409.723 679.126 409.725C679.182 409.74 679.257 409.76 679.35 409.786C679.535 409.838 679.794 409.913 680.119 410.012C680.771 410.209 681.694 410.503 682.848 410.908C685.154 411.717 688.392 412.972 692.234 414.785C699.906 418.407 710.064 424.293 720.039 433.376C740.149 451.687 759.063 482.62 755.998 532.697C755.936 556.056 744.787 586.812 723.158 611.744C701.311 636.926 668.48 656.5 625 656.5H223.527C223.507 656.5 223.479 656.501 223.444 656.501C223.372 656.501 223.267 656.502 223.138 656.503C222.88 656.505 222.519 656.507 222.108 656.509C221.325 656.512 220.324 656.51 219.5 656.499V656.5C200.282 656.5 170.859 644.321 146.405 621.376C121.69 598.186 101.396 563.422 101.396 517.5C101.396 425.989 174.369 379.178 219.409 378.501C220.249 378.488 221.296 378.488 222.108 378.491C222.374 378.492 222.619 378.494 222.828 378.495C222.887 378.282 222.935 378.046 222.965 377.814C222.986 377.654 222.995 377.531 222.998 377.465C223 377.44 223 377.426 223 377.422V372.5C223 283.696 277.288 226.497 341.033 209.698Z" stroke="url(#paint1_linear_5_495)" stroke-width="12"/>
</g>
<g filter="url(#filter2_d_5_495)">
<path fill-rule="evenodd" clip-rule="evenodd" d="M581.5 650.5H228.5H223.5C223.5 650.5 221.062 650.523 219.5 650.5C185 650.5 107.396 605.5 107.396 517.5C107.396 429.5 177.5 385.132 219.5 384.5C221.062 384.477 223.5 384.5 223.5 384.5C229 384.5 229 377.5 229 377.5V372.5C229 200.5 438.5 153 509 291C510.75 294.425 513 300 513 300L516 308C516 308 528.5 307 542 307C567 307 597.933 309.4 622 331.5C639 347.11 651 370.5 651 386.5L651.1 389C652.1 405 658 411.143 671 414C673.5 414.357 677.5 415.5 677.5 415.5C677.5 415.5 756 436 750 532.5C750 576 708 650.5 625 650.5H581.5Z" fill="url(#paint2_linear_5_495)"/>
</g>
<g filter="url(#filter3_f_5_495)">
<path d="M676.232 420.336L676.182 420.323L676.126 420.308C676.125 420.307 676.124 420.307 676.121 420.307C676.116 420.305 676.107 420.302 676.094 420.299C676.069 420.292 676.029 420.28 675.977 420.266C675.872 420.236 675.718 420.194 675.523 420.141C675.132 420.034 674.585 419.888 673.967 419.732C672.678 419.408 671.267 419.089 670.293 418.95L670.109 418.924L669.927 418.884C662.905 417.34 656.933 414.729 652.699 409.618C648.506 404.556 646.639 397.788 646.11 389.311L646.107 389.256L646.104 389.199L646.004 386.699L646 386.6V386.5C646 379.601 643.361 370.571 638.445 361.171C633.567 351.846 626.661 342.568 618.618 335.183C596.055 314.464 566.864 312 542 312C535.365 312 528.956 312.246 524.197 312.493C521.82 312.617 519.863 312.74 518.502 312.832C517.822 312.878 517.292 312.917 516.934 312.943C516.755 312.957 516.619 312.967 516.529 312.974C516.484 312.977 516.45 312.98 516.428 312.981C516.417 312.982 516.41 312.983 516.405 312.983L516.399 312.984L512.642 313.284L511.319 309.756L508.341 301.816C508.325 301.778 508.302 301.719 508.271 301.643C508.208 301.491 508.116 301.266 508 300.986C507.768 300.425 507.441 299.642 507.061 298.755C506.288 296.952 505.342 294.83 504.547 293.274C470.47 226.571 402.978 204.749 343.836 220.335C284.78 235.898 234 288.836 234 372.5V377.5H229L234 377.504V377.536C234 377.55 234 377.566 233.999 377.584C233.999 377.619 233.999 377.661 233.997 377.71C233.995 377.807 233.99 377.932 233.982 378.081C233.965 378.377 233.933 378.775 233.871 379.243C233.752 380.153 233.505 381.455 232.966 382.828C232.432 384.187 231.515 385.861 229.914 387.219C228.221 388.655 226.038 389.5 223.5 389.5H223.427C223.41 389.5 223.384 389.499 223.35 389.499C223.282 389.498 223.183 389.498 223.059 389.497C222.81 389.495 222.463 389.493 222.068 389.491C221.269 389.488 220.307 389.489 219.575 389.5C180.109 390.093 112.396 432.426 112.396 517.5C112.396 559.898 131.053 591.886 153.932 613.353C177.028 635.024 203.89 645.5 219.5 645.5H219.537L219.575 645.501C220.307 645.512 221.269 645.512 222.068 645.509C222.463 645.507 222.81 645.506 223.059 645.504C223.183 645.503 223.282 645.501 223.35 645.501C223.384 645.501 223.41 645.501 223.427 645.501C223.435 645.501 223.441 645.5 223.446 645.5H625C664.85 645.5 694.782 627.665 714.848 604.536C735.044 581.257 745 552.889 745 532.5V532.345L745.01 532.189C747.91 485.548 730.461 457.743 712.634 441.51C703.645 433.324 694.464 428.002 687.537 424.732C684.079 423.1 681.198 421.986 679.206 421.287C678.211 420.938 677.439 420.693 676.931 420.539C676.677 420.462 676.489 420.408 676.371 420.375C676.313 420.358 676.272 420.347 676.249 420.341L676.232 420.336ZM676.232 420.336V420.337V420.336Z" stroke="white" stroke-opacity="0.26" stroke-width="10"/>
</g>
<path opacity="0.85" d="M189.5 558H188.5V558.414L188.793 558.707L189.5 558ZM227.5 596L226.793 596.707L227.086 597H227.5V596ZM339.167 596C339.167 598.946 341.554 601.333 344.5 601.333C347.446 601.333 349.833 598.946 349.833 596C349.833 593.054 347.446 590.667 344.5 590.667C341.554 590.667 339.167 593.054 339.167 596ZM554.167 413C554.167 415.946 556.554 418.333 559.5 418.333C562.446 418.333 564.833 415.946 564.833 413C564.833 410.054 562.446 407.667 559.5 407.667C556.554 407.667 554.167 410.054 554.167 413ZM587.167 355C587.167 357.946 589.554 360.333 592.5 360.333C595.446 360.333 597.833 357.946 597.833 355C597.833 352.054 595.446 349.667 592.5 349.667C589.554 349.667 587.167 352.054 587.167 355ZM513.167 386.5C513.167 389.446 515.554 391.833 518.5 391.833C521.446 391.833 523.833 389.446 523.833 386.5C523.833 383.554 521.446 381.167 518.5 381.167C515.554 381.167 513.167 383.554 513.167 386.5ZM575 386.5L575.707 385.793L575.414 385.5H575V386.5ZM615.5 427L614.793 427.707L615.086 428H615.5V427ZM592.5 471V470H592.086L591.793 470.293L592.5 471ZM653.667 471C653.667 473.946 656.054 476.333 659 476.333C661.946 476.333 664.333 473.946 664.333 471C664.333 468.054 661.946 465.667 659 465.667C656.054 465.667 653.667 468.054 653.667 471ZM610.167 504C610.167 506.946 612.554 509.333 615.5 509.333C618.446 509.333 620.833 506.946 620.833 504C620.833 501.054 618.446 498.667 615.5 498.667C612.554 498.667 610.167 501.054 610.167 504ZM536.5 583V584H536.914L537.207 583.707L536.5 583ZM559.5 611.5V612.5H559.914L560.207 612.207L559.5 611.5ZM637.167 528.5C637.167 531.446 639.554 533.833 642.5 533.833C645.446 533.833 647.833 531.446 647.833 528.5C647.833 525.554 645.446 523.167 642.5 523.167C639.554 523.167 637.167 525.554 637.167 528.5ZM625.167 589.5C625.167 592.446 627.554 594.833 630.5 594.833C633.446 594.833 635.833 592.446 635.833 589.5C635.833 586.554 633.446 584.167 630.5 584.167C627.554 584.167 625.167 586.554 625.167 589.5ZM680 540L680.707 540.707L681 540.414V540H680ZM674.667 512C674.667 514.946 677.054 517.333 680 517.333C682.946 517.333 685.333 514.946 685.333 512C685.333 509.054 682.946 506.667 680 506.667C677.054 506.667 674.667 509.054 674.667 512ZM153.667 496.5C153.667 499.446 156.054 501.833 159 501.833C161.946 501.833 164.333 499.446 164.333 496.5C164.333 493.554 161.946 491.167 159 491.167C156.054 491.167 153.667 493.554 153.667 496.5ZM233 496.5L233.707 495.793L233.414 495.5H233V496.5ZM262.167 531C262.167 533.946 264.554 536.333 267.5 536.333C270.446 536.333 272.833 533.946 272.833 531C272.833 528.054 270.446 525.667 267.5 525.667C264.554 525.667 262.167 528.054 262.167 531ZM295.667 417C295.667 419.946 298.054 422.333 301 422.333C303.946 422.333 306.333 419.946 306.333 417C306.333 414.054 303.946 411.667 301 411.667C298.054 411.667 295.667 414.054 295.667 417ZM261 457V458H261.414L261.707 457.707L261 457ZM174.667 457C174.667 459.946 177.054 462.333 180 462.333C182.946 462.333 185.333 459.946 185.333 457C185.333 454.054 182.946 451.667 180 451.667C177.054 451.667 174.667 454.054 174.667 457ZM238.667 436C238.667 438.946 241.054 441.333 244 441.333C246.946 441.333 249.333 438.946 249.333 436C249.333 433.054 246.946 430.667 244 430.667C241.054 430.667 238.667 433.054 238.667 436ZM298.5 381.5L299.207 382.207L299.5 381.914V381.5H298.5ZM298.5 304.5L297.793 303.793L297.5 304.086V304.5H298.5ZM339.167 258.5C339.167 261.446 341.554 263.833 344.5 263.833C347.446 263.833 349.833 261.446 349.833 258.5C349.833 255.554 347.446 253.167 344.5 253.167C341.554 253.167 339.167 255.554 339.167 258.5ZM318.167 322C318.167 324.946 320.554 327.333 323.5 327.333C326.446 327.333 328.833 324.946 328.833 322C328.833 319.054 326.446 316.667 323.5 316.667C320.554 316.667 318.167 319.054 318.167 322ZM380.5 265V264H380.086L379.793 264.293L380.5 265ZM399.167 265C399.167 267.946 401.554 270.333 404.5 270.333C407.446 270.333 409.833 267.946 409.833 265C409.833 262.054 407.446 259.667 404.5 259.667C401.554 259.667 399.167 262.054 399.167 265ZM189.5 508.5H188.5V558H189.5H190.5V508.5H189.5ZM189.5 558L188.793 558.707L226.793 596.707L227.5 596L228.207 595.293L190.207 557.293L189.5 558ZM227.5 596V597H344.5V596V595H227.5V596ZM483.5 413V414H559.5V413V412H483.5V413ZM512.5 355V356H592.5V355V354H512.5V355ZM518.5 386.5V387.5H575V386.5V385.5H518.5V386.5ZM575 386.5L574.293 387.207L614.793 427.707L615.5 427L616.207 426.293L575.707 385.793L575 386.5ZM615.5 427V428H653V427V426H615.5V427ZM555 508.5L555.707 509.207L593.207 471.707L592.5 471L591.793 470.293L554.293 507.793L555 508.5ZM592.5 471V472H659V471V470H592.5V471ZM615.5 504L614.793 503.293L535.793 582.293L536.5 583L537.207 583.707L616.207 504.707L615.5 504ZM536.5 583V582H453V583V584H536.5V583ZM483.5 611.5V612.5H559.5V611.5V610.5H483.5V611.5ZM559.5 611.5L560.207 612.207L643.207 529.207L642.5 528.5L641.793 527.793L558.793 610.793L559.5 611.5ZM630.5 589.5L631.207 590.207L680.707 540.707L680 540L679.293 539.293L629.793 588.793L630.5 589.5ZM680 540H681V512H680H679V540H680ZM159 496.5V497.5H233V496.5V495.5H159V496.5ZM233 496.5L232.293 497.207L266.793 531.707L267.5 531L268.207 530.293L233.707 495.793L233 496.5ZM301 417L300.293 416.293L260.293 456.293L261 457L261.707 457.707L301.707 417.707L301 417ZM261 457V456H180V457V458H261V457ZM244 436L244.707 436.707L299.207 382.207L298.5 381.5L297.793 380.793L243.293 435.293L244 436ZM298.5 381.5H299.5V304.5H298.5H297.5V381.5H298.5ZM298.5 304.5L299.207 305.207L345.207 259.207L344.5 258.5L343.793 257.793L297.793 303.793L298.5 304.5ZM323.5 322L324.207 322.707L381.207 265.707L380.5 265L379.793 264.293L322.793 321.293L323.5 322ZM380.5 265V266H404.5V265V264H380.5V265Z" fill="url(#paint3_linear_5_495)" fill-opacity="0.24"/>
</g>
<defs>
<filter id="filter0_d_5_495" x="-4" y="0" width="864" height="886" filterUnits="userSpaceOnUse" color-interpolation-filters="sRGB">
<feFlood flood-opacity="0" result="BackgroundImageFix"/>
<feColorMatrix in="SourceAlpha" type="matrix" values="0 0 0 0 0 0 0 0 0 0 0 0 0 0 0 0 0 0 127 0" result="hardAlpha"/>
<feOffset dy="4"/>
<feGaussianBlur stdDeviation="2"/>
<feComposite in2="hardAlpha" operator="out"/>
<feColorMatrix type="matrix" values="0 0 0 0 0 0 0 0 0 0 0 0 0 0 0 0 0 0 0.25 0"/>
<feBlend mode="normal" in2="BackgroundImageFix" result="effect1_dropShadow_5_495"/>
<feBlend mode="normal" in="SourceGraphic" in2="effect1_dropShadow_5_495" result="shape"/>
</filter>
<filter id="filter1_i_5_495" x="95.3958" y="198.544" width="666.932" height="467.967" filterUnits="userSpaceOnUse" color-interpolation-filters="sRGB">
<feFlood flood-opacity="0" result="BackgroundImageFix"/>
<feBlend mode="normal" in="SourceGraphic" in2="BackgroundImageFix" result="shape"/>
<feColorMatrix in="SourceAlpha" type="matrix" values="0 0 0 0 0 0 0 0 0 0 0 0 0 0 0 0 0 0 127 0" result="hardAlpha"/>
<feOffset dy="4"/>
<feGaussianBlur stdDeviation="2"/>
<feComposite in2="hardAlpha" operator="arithmetic" k2="-1" k3="1"/>
<feColorMatrix type="matrix" values="0 0 0 0 0 0 0 0 0 0 0 0 0 0 0 0 0 0 0.2 0"/>
<feBlend mode="normal" in2="shape" result="effect1_innerShadow_5_495"/>
</filter>
<filter id="filter2_d_5_495" x="67.3958" y="192.534" width="722.932" height="519.976" filterUnits="userSpaceOnUse" color-interpolation-filters="sRGB">
<feFlood flood-opacity="0" result="BackgroundImageFix"/>
<feColorMatrix in="SourceAlpha" type="matrix" values="0 0 0 0 0 0 0 0 0 0 0 0 0 0 0 0 0 0 127 0" result="hardAlpha"/>
<feOffset dy="22"/>
<feGaussianBlur stdDeviation="20"/>
<feComposite in2="hardAlpha" operator="out"/>
<feColorMatrix type="matrix" values="0 0 0 0 0.0117647 0 0 0 0 0.454902 0 0 0 0 0.580392 0 0 0 1 0"/>
<feBlend mode="normal" in2="BackgroundImageFix" result="effect1_dropShadow_5_495"/>
<feBlend mode="normal" in="SourceGraphic" in2="effect1_dropShadow_5_495" result="shape"/>
</filter>
<filter id="filter3_f_5_495" x="105.396" y="208.534" width="646.932" height="443.976" filterUnits="userSpaceOnUse" color-interpolation-filters="sRGB">
<feFlood flood-opacity="0" result="BackgroundImageFix"/>
<feBlend mode="normal" in="SourceGraphic" in2="BackgroundImageFix" result="shape"/>
<feGaussianBlur stdDeviation="1" result="effect1_foregroundBlur_5_495"/>
</filter>
<linearGradient id="paint0_linear_5_495" x1="428" y1="0" x2="428" y2="878" gradientUnits="userSpaceOnUse">
<stop offset="0.601128" stop-color="white"/>
<stop offset="1" stop-color="#B8B8B8"/>
</linearGradient>
<linearGradient id="paint1_linear_5_495" x1="249" y1="77.5" x2="566.5" y2="802" gradientUnits="userSpaceOnUse">
<stop offset="0.158505" stop-color="#06CFE3"/>
<stop offset="0.76386" stop-color="#035E79"/>
</linearGradient>
<linearGradient id="paint2_linear_5_495" x1="219" y1="168.5" x2="607.5" y2="685" gradientUnits="userSpaceOnUse">
<stop offset="0.198283" stop-color="#00F0F3"/>
<stop offset="1" stop-color="#037494"/>
</linearGradient>
<linearGradient id="paint3_linear_5_495" x1="212.5" y1="208.5" x2="649.5" y2="650.5" gradientUnits="userSpaceOnUse">
<stop offset="0.800766" stop-color="white" stop-opacity="0.95"/>
<stop offset="1" stop-color="#06CFE3"/>
</linearGradient>
<clipPath id="clip0_5_495">
<rect width="856" height="878" fill="white"/>
</clipPath>
</defs>
</svg>
