<svg width="512" height="512" viewBox="0 0 512 512" fill="none" xmlns="http://www.w3.org/2000/svg">
<path fill-rule="evenodd" clip-rule="evenodd" d="M468 21.083C461.675 22.656 451.325 24.875 445 26.013C411.399 32.059 401.504 35.182 388.173 43.947C373.865 53.355 364.503 65.27 359.587 80.33C356.338 90.283 354.943 103.94 356.158 113.885C357.203 122.432 361.84 139 363.187 139C363.67 139 366.096 134.624 368.579 129.276C373.535 118.597 383.355 103.333 390.355 95.426C396.566 88.411 407.234 79.868 417.151 73.968C426.433 68.446 430.575 67.683 431.901 71.25C433.154 74.62 432.345 75.702 425.636 79.633C412.794 87.157 402.867 96.802 393.152 111.192C383.877 124.929 371.601 155.004 367.515 174C365.546 183.151 364.469 204.844 365.459 215.41C366.28 224.165 368.094 227 372.878 227C377.991 227 378.449 225.363 378.147 208.144C377.862 191.875 378.783 182.993 382.147 169.571C386.273 153.107 392.487 146.784 407.728 143.541C454.046 133.685 475.895 99.107 482.475 25.25C483.241 16.654 484.427 16.996 468 21.083ZM211.498 62.057C166.832 65.505 123.841 85.526 92.667 117.397C63.398 147.32 45.167 186.598 40.635 229.5L39.473 240.5L25.353 240.777C11.986 241.039 11.095 241.183 8.61702 243.479C5.20702 246.64 5.04702 252.339 8.25002 256.617C9.48802 258.27 19.378 270.244 30.23 283.227C50.954 308.021 52.453 309.299 58.248 307.096C59.806 306.503 69.459 295.639 82.421 279.888C101.151 257.128 104 253.218 104 250.268C104 241.859 99.562 239.75 82.632 240.115L70.548 240.375L70.823 235.937C71.942 217.833 77.76 197.283 87.084 178.5C111.819 128.667 161.06 95.884 216.843 92.112C247.98 90.006 276.262 95.529 303.526 109.04C318.783 116.601 322.19 116.745 329.339 110.128C334.746 105.124 336.371 99.103 333.824 93.512C332.454 90.506 324.969 85.753 311.717 79.476C292.021 70.146 267.35 63.883 243 62.031C228.274 60.912 226.311 60.913 211.498 62.057ZM428.112 157.581C414.897 161.135 401.861 171.467 396.199 182.874C394.459 186.38 393.254 189.602 393.522 190.035C393.789 190.468 397.718 189.309 402.254 187.461C406.789 185.613 413.182 183.404 416.46 182.551C429.978 179.034 456.99 182.41 452.362 187.038C451.79 187.61 446.606 188.243 440.84 188.447C428.188 188.894 419.29 190.986 408.071 196.154L399.643 200.036L403.071 203.591C413.03 213.916 428.51 220.211 444 220.233C458.484 220.253 470.14 216.535 484.297 207.376C492.481 202.082 507.5 190.127 507.5 188.907C507.5 188.439 502.1 183.984 495.5 179.006C470.11 159.855 446.988 152.504 428.112 157.581ZM397.396 242.429C391.695 244.911 389.78 249.02 388.797 260.881C382.786 333.394 331.527 392.043 261.56 406.46C198.013 419.554 133.668 394.21 93.96 340.446C85.592 329.115 82.314 327.092 75.444 329.016C69.905 330.567 63.139 337.368 62.36 342.168C61.701 346.232 62.925 348.983 70.208 359.795C111.907 421.703 196.595 453.699 271.872 435.987C308.433 427.384 339.81 409.383 367.095 381.356C390.877 356.927 408.17 324.632 414.964 291.956C417.463 279.935 419.399 259.144 418.547 253.464C417.063 243.57 406.925 238.281 397.396 242.429Z" fill="#6EB73D"/>
<path fill-rule="evenodd" clip-rule="evenodd" d="M455.5 286.387C449.517 289.22 444.711 294.042 442.429 299.5C439.987 305.34 440.233 314.785 442.974 320.447C444.197 322.973 444.967 325.594 444.684 326.27C444.402 326.947 439.958 333.712 434.81 341.305L425.449 355.11L418.475 355.366C407.726 355.762 399.313 361.281 395.406 370.5C393.17 375.779 393.188 384.873 395.446 389.88L397.225 393.825L385.872 406.927C377.804 416.239 374.083 419.843 373.01 419.384C372.179 419.029 369.25 418.531 366.5 418.277C356.483 417.353 345.345 424.143 341.403 433.578C339.599 437.896 339.599 448.104 341.403 452.422C343.62 457.728 349.56 463.564 355.222 466C365.936 470.609 379.037 466.741 385.102 457.178C390.614 448.487 391.221 440.22 386.991 431.482C385.896 429.22 385 427.069 385 426.702C385 426.336 389.581 420.741 395.179 414.268C402.749 405.517 405.89 402.563 407.429 402.746C418.495 404.061 422.184 404.129 425.159 403.073L428.5 401.888L437.788 411.694C442.896 417.087 448.176 422.882 449.521 424.572L451.966 427.644L450.025 431.451C442.229 446.742 452.551 465.625 469.818 467.663C483.069 469.227 495.297 459.209 496.697 445.643C497.731 435.632 492.3 425.281 483.653 420.78C479.347 418.538 469.808 417.803 463.5 419.227C460.661 419.868 459.904 419.248 449.412 407.702L438.324 395.5L440.703 390.5C444.649 382.207 442.966 369.634 437.062 363.297C435.262 361.365 435.432 361.02 445.238 346.694C453.883 334.063 455.498 332.196 457.06 333.032C459.806 334.502 471.304 334.189 475.257 332.537C484.322 328.75 490.245 319.672 490.269 309.532C490.288 301.476 487.848 295.948 481.922 290.619C474.236 283.709 464.461 282.144 455.5 286.387Z" fill="url(#paint0_linear_25_28)"/>
<defs>
<linearGradient id="paint0_linear_25_28" x1="367.264" y1="266.47" x2="530.963" y2="393.433" gradientUnits="userSpaceOnUse">
<stop offset="0.198283" stop-color="#00F0F3"/>
<stop offset="1" stop-color="#037494"/>
</linearGradient>
</defs>
</svg>
